PathFileType	4	(X/Y/Z)	c:\Git\powerlifing_model_clean\simulations\HC835B\Session1\HC835B_OGR_0008\marker_experimental.trc
DataRate	CameraRate	NumFrames	NumMarkers	Units	OrigDataRate	OrigDataStartFrame	OrigNumFrames
240.000000	240.000000	4	38	mm	240.000000	108	217
Frame#	Time	RPSI			LPSI			RASI			LASI			RTH1			RTH2			RTH3			RTH4			RSK1			RSK2			RSK3			RSK4			RCAL1			RCAL2			RCAL3			RST			RPT			RTN			RFMB			RSMB			RVMB			RFMH			RSMH			RVMH			RPM			LTH1			LTH2			LTH3			LTH4			LSK1			LSK2			LSK3			LSK4			LCAL1			LCAL2			LCAL3			LFMH			LVMH			
		X1	Y1	Z1	X2	Y2	Z2	X3	Y3	Z3	X4	Y4	Z4	X5	Y5	Z5	X6	Y6	Z6	X7	Y7	Z7	X8	Y8	Z8	X9	Y9	Z9	X10	Y10	Z10	X11	Y11	Z11	X12	Y12	Z12	X13	Y13	Z13	X14	Y14	Z14	X15	Y15	Z15	X16	Y16	Z16	X17	Y17	Z17	X18	Y18	Z18	X19	Y19	Z19	X20	Y20	Z20	X21	Y21	Z21	X22	Y22	Z22	X23	Y23	Z23	X24	Y24	Z24	X25	Y25	Z25	X26	Y26	Z26	X27	Y27	Z27	X28	Y28	Z28	X29	Y29	Z29	X30	Y30	Z30	X31	Y31	Z31	X32	Y32	Z32	X33	Y33	Z33	X34	Y34	Z34	X35	Y35	Z35	X36	Y36	Z36	X37	Y37	Z37	X38	Y38	Z38	

109	0.45	472.6875610351564	1180.62109375	-1203.461181640625	363.6710510253907	1168.884643554688	-1187.121948242188	523.0997924804689	1096.65869140625	-1390.571166992188	294.9081115722657	1102.747924804688	-1380.6015625	591.1550292968751	811.0238037109377	-1267.766479492188	571.8977050781251	787.958679199219	-1320.619262695313	576.8070678710939	727.6448364257814	-1270.940551757813	548.4945678710939	706.0285644531251	-1317.460083007813	557.1389770507814	545.3486328125001	-920.7341308593752	564.0233764648439	484.2141113281251	-926.849548339844	559.2896728515626	511.9729614257814	-872.665222167969	553.8323364257814	452.6598205566407	-878.3518676757815	504.8326721191407	523.4466552734376	-739.5283813476564	466.0640869140626	514.6976318359376	-709.9772338867189	528.6755371093751	524.2347412109376	-696.9126586914064	463.4519653320314	444.3464660644532	-723.8934326171876	559.3592529296876	466.9856262207032	-699.6600341796876	485.9803466796876	390.7293395996095	-737.3540649414064	486.748992919922	361.2680969238282	-717.1511840820314	542.1101074218751	354.4104309082032	-731.6796875000001	567.9963378906251	424.7659301757814	-669.8349609375001	483.508758544922	308.1460266113282	-683.5748901367189	539.8239135742189	299.1310729980469	-688.3106689453126	587.9682617187501	348.7037353515626	-652.4886474609376	534.1143798828126	242.6495819091797	-681.9494018554689	224.3243408203126	815.9812011718752	-1349.762939453125	230.3138732910157	822.6381835937502	-1409.891723632813	235.8311157226563	743.0264282226564	-1393.528076171875	258.7330627441407	750.9272460937501	-1450.318237304688	292.6236572265626	296.5594482421876	-1420.521118164063	282.0410766601563	286.8439025878907	-1471.684448242188	294.3034667968751	246.0307006835938	-1445.633422851563	300.1398315429688	240.6222839355469	-1502.178100585938	359.1163635253907	88.64734649658205	-1422.557983398438	339.2301025390626	45.97909545898438	-1432.600708007813	395.8703613281251	60.92793655395509	-1434.5791015625	396.8348083496095	115.9193572998047	-1648.375	303.0394592285157	53.05788040161134	-1622.212890625	
110	0.4541666666666667	473.750457763672	1175.3720703125	-1215.581665039063	364.6434936523438	1163.800415039063	-1199.433227539063	522.9954833984376	1092.575561523438	-1403.221557617188	294.7003784179688	1098.9990234375	-1393.375610351563	591.3369750976564	805.780700683594	-1283.159423828125	572.1311645507814	783.3760375976565	-1336.297607421875	576.9859619140626	722.4284667968751	-1287.34130859375	548.6215820312501	701.4062500000001	-1334.121704101563	558.0584106445314	546.3037109375001	-939.6055297851565	564.8029785156251	485.0072631835939	-944.272644042969	560.2823486328126	513.9691162109376	-890.7912597656252	554.5467529296876	454.4731445312501	-895.122009277344	505.895721435547	528.9221801757814	-758.7770385742189	467.0454711914064	521.2180786132814	-729.0788574218751	529.6516113281251	531.1582641601564	-716.2534179687501	464.5225524902345	450.3631591796876	-740.7731323242189	560.2973632812501	473.7831420898439	-716.9331665039064	487.327117919922	396.2605590820314	-752.7882690429689	487.5379638671876	367.9435729980469	-730.9382324218751	543.0291137695314	360.2184753417969	-744.7628784179689	568.7306518554689	432.5740966796876	-685.7416992187501	484.2837219238282	315.6095581054688	-695.7630615234376	540.6286010742189	306.4072570800782	-700.1216430664064	588.7619018554689	357.1891174316407	-665.8637084960939	534.9023437500001	250.2369689941407	-691.8527221679689	225.3630828857422	812.8902587890627	-1364.08544921875	230.0095825195313	819.8161621093752	-1424.166015625	236.1371002197266	740.0171508789064	-1408.18115234375	257.8892211914063	748.0304565429689	-1465.50537109375	293.4240417480469	292.8531188964844	-1429.531005859375	282.5464782714844	282.3138427734376	-1480.311889648438	294.9409790039063	242.1262969970704	-1453.517211914063	300.7404785156251	235.7015991210938	-1509.955200195313	359.9300231933594	85.63176727294923	-1427.51025390625	340.3523559570313	42.86252593994141	-1436.647338867188	396.8191833496095	57.78888320922853	-1438.8427734375	398.2777404785157	108.5742568969727	-1653.639770507813	304.5748901367188	45.90806198120118	-1626.536499023438	
111	0.4583333333333333	474.8926086425782	1169.84716796875	-1227.631225585938	365.5836486816407	1158.433715820313	-1211.860229492188	522.9186401367189	1088.308349609375	-1415.888427734375	294.3876647949219	1095.314575195313	-1406.25927734375	591.5433349609376	800.533386230469	-1298.5654296875	572.5079345703126	778.7578735351565	-1351.996337890625	577.2442016601564	717.2178344726564	-1303.809204101563	548.8869628906251	696.7805786132814	-1350.86328125	559.2748413085939	547.1054687500001	-958.838317871094	565.5404052734376	485.6084594726564	-962.0562133789065	561.2122802734376	515.7581176757814	-909.2476806640627	555.3016967773439	456.3408203125001	-912.1741333007815	506.9502563476564	534.1553955078126	-778.453063964844	467.8557434082032	527.2711791992189	-748.7343750000001	530.4219360351564	537.4812622070314	-735.7321777343751	465.6371459960939	456.0445251464845	-758.1903686523439	561.1532592773439	480.2950439453126	-734.7219238281251	487.9476013183595	401.7714843750001	-767.8360595703126	488.6728515625001	373.6947021484376	-745.9677734375001	543.9785156250001	365.8296203613282	-758.9524536132814	569.5110473632814	440.1391601562501	-702.2365112304689	485.1099243164064	322.8450012207032	-708.8677368164064	541.3885498046876	313.5339050292969	-712.5480346679689	589.3836059570314	365.4145812988282	-679.7606811523439	535.5858154296876	257.7424926757813	-702.3289794921876	226.2832183837891	809.3890380859377	-1378.293334960938	229.6633911132813	816.620056152344	-1438.463623046875	236.460678100586	736.7614135742189	-1422.783813476563	257.0875244140626	744.8577270507814	-1480.651489257813	293.6353149414063	289.6210327148438	-1438.241943359375	282.8552246093751	277.8197326660157	-1488.889404296875	295.3586120605469	238.0459594726563	-1461.310913085938	301.1577453613282	230.5384979248047	-1517.690063476563	361.6615600585938	85.06224060058595	-1432.40380859375	341.4548645019532	42.24877166748048	-1439.727783203125	398.058319091797	56.30625152587892	-1442.723754882813	399.9146728515626	100.8483352661133	-1658.461181640625	306.2984008789063	38.67821121215821	-1630.156616210938	
112	0.4625	476.0873107910157	1164.069702148438	-1239.58740234375	366.5863952636719	1152.842407226563	-1224.353637695313	522.9489746093751	1083.865112304688	-1428.544921875	293.8466491699219	1091.329833984375	-1419.245727539063	591.9613037109376	795.275573730469	-1314.016845703125	572.9415893554689	774.0999145507815	-1367.810546875	577.6464233398439	712.0407104492189	-1320.359252929688	549.2736206054689	692.2135620117189	-1367.685180664063	560.2828369140626	547.6420898437501	-978.2675781250002	566.3159179687501	486.0547790527345	-980.1148071289065	562.2269287109376	517.4013671875001	-927.9060058593752	556.3484497070314	457.8723754882814	-929.3850097656252	507.8421936035157	538.9721679687501	-798.4534301757815	468.8032531738282	533.0588989257814	-768.6772460937502	531.1625976562501	543.5519409179689	-755.8634643554689	466.4349975585939	461.5482177734376	-775.8516845703127	561.9180908203126	486.4287414550782	-752.9188842773439	488.8485412597657	406.8832397460939	-783.8130493164065	489.3629150390626	379.7419738769532	-760.6328125000001	545.1966552734376	371.4411315917969	-773.6804809570315	570.1582031250001	447.308074951172	-719.2163696289064	485.7803039550782	329.8120727539063	-722.3363037109376	542.1875000000001	320.4995422363282	-725.6267089843751	590.1174926757814	373.3343505859376	-694.4105224609376	536.0331420898439	264.9532470703126	-713.4368286132814	227.0237274169922	805.606872558594	-1392.405639648438	229.1125183105469	812.8703613281252	-1452.551635742188	236.8580474853516	733.0894165039064	-1437.250610351563	256.3093261718751	741.6544799804689	-1495.409790039063	293.5356750488282	285.7472839355469	-1446.834594726563	283.1486206054688	273.1372070312501	-1497.403930664063	295.6460876464844	233.8832550048829	-1469.267944335938	301.7308654785157	225.5621948242188	-1525.291381835938	363.4519348144532	85.37647247314455	-1436.756713867188	342.4019165039063	42.49065780639649	-1442.011352539063	399.2579956054689	55.43037414550783	-1445.415771484375	402.4779052734376	92.35939788818361	-1662.5205078125	307.6482543945313	32.78010559082032	-1632.638061523438	
